<?xml version="1.0" standalone="no"?>
<!DOCTYPE svg PUBLIC "-//W3C//DTD SVG 20010904//EN"
 "http://www.w3.org/TR/2001/REC-SVG-20010904/DTD/svg10.dtd">
<svg version="1.0" xmlns="http://www.w3.org/2000/svg"
 width="64.000000pt" height="64.000000pt" viewBox="0 0 64.000000 64.000000"
 preserveAspectRatio="xMidYMid meet">

<g transform="translate(0.000000,64.000000) scale(0.100000,-0.100000)"
fill="#207178" stroke="none">
<path d="M223 622 c-77 -28 -129 -66 -167 -125 -108 -163 -51 -379 122 -464
49 -24 69 -28 142 -28 100 0 158 23 223 88 62 62 92 137 91 227 0 95 -27 159
-92 223 -87 86 -213 117 -319 79z m154 -179 c47 -31 69 -115 42 -165 -9 -17
-6 -25 20 -52 24 -25 28 -35 19 -44 -9 -9 -19 -5 -44 19 -27 26 -35 29 -52 20
-63 -34 -157 5 -180 74 -39 118 90 216 195 148z"/>
<path d="M264 416 c-39 -17 -60 -69 -45 -109 34 -89 171 -68 171 27 0 67 -65
109 -126 82z"/>
</g>
</svg>
