<?xml version="1.0" standalone="no"?>
<!DOCTYPE svg PUBLIC "-//W3C//DTD SVG 20010904//EN"
 "http://www.w3.org/TR/2001/REC-SVG-20010904/DTD/svg10.dtd">
<svg version="1.0" xmlns="http://www.w3.org/2000/svg"
 width="20.000000pt" height="20.000000pt" viewBox="0 0 64.000000 64.000000"
 preserveAspectRatio="xMidYMid meet">

<g transform="translate(0.000000,64.000000) scale(0.100000,-0.100000)"
fill="#207178" stroke="none">
<path d="M262 628 c-7 -7 -12 -24 -12 -40 0 -42 -32 -55 -70 -28 -36 26 -60
20 -95 -21 -30 -37 -31 -43 -5 -80 27 -37 13 -69 -28 -69 -39 0 -52 -17 -52
-70 0 -53 13 -70 52 -70 41 0 55 -32 28 -69 -26 -37 -25 -43 5 -80 35 -41 59
-47 95 -21 38 27 70 14 70 -28 0 -39 17 -52 70 -52 53 0 70 13 70 52 0 42 32
55 70 28 36 -26 60 -20 95 21 30 37 31 43 5 80 -27 37 -13 69 28 69 39 0 52
17 52 70 0 53 -13 70 -52 70 -42 0 -55 32 -28 70 26 36 20 60 -21 95 -37 30
-43 31 -80 5 -37 -27 -69 -13 -69 28 0 39 -17 52 -70 52 -25 0 -51 -5 -58 -12z
m102 -34 c3 -9 6 -24 6 -35 0 -11 13 -25 31 -35 30 -15 33 -15 60 5 35 26 37
26 66 -1 28 -26 28 -32 2 -67 -20 -27 -20 -30 -5 -60 10 -18 24 -31 35 -31 40
0 51 -11 51 -50 0 -39 -11 -50 -51 -50 -11 0 -25 -13 -35 -31 -15 -30 -15 -33
5 -60 26 -35 26 -37 -1 -66 -26 -28 -32 -28 -67 -2 -27 20 -30 20 -60 5 -18
-10 -31 -24 -31 -35 0 -40 -11 -51 -50 -51 -39 0 -50 11 -50 51 0 11 -13 25
-31 35 -30 15 -33 15 -60 -5 -35 -26 -37 -26 -66 1 -28 26 -28 32 -2 67 20 27
20 30 5 60 -10 18 -24 31 -35 31 -40 0 -51 11 -51 50 0 39 11 50 51 50 11 0
25 13 35 31 15 30 15 33 -5 60 -26 35 -26 37 1 66 26 28 32 28 67 2 27 -20 30
-20 60 -5 18 10 31 24 31 35 0 40 11 51 50 51 25 0 40 -5 44 -16z"/>
<path d="M229 411 c-40 -40 -41 -42 -37 -97 4 -46 10 -61 37 -87 28 -29 37
-32 91 -32 54 0 63 3 92 33 30 29 33 38 33 92 0 54 -3 63 -32 91 -26 27 -41
33 -87 37 -55 4 -57 3 -97 -37z m136 3 c31 -14 65 -64 65 -94 0 -7 -7 -27 -16
-45 -19 -41 -73 -69 -114 -60 -37 8 -77 48 -85 85 -9 40 19 95 58 114 40 20
51 20 92 0z"/>
</g>
</svg>
